<svg width="482" height="457" viewBox="0 0 482 457" fill="none" xmlns="http://www.w3.org/2000/svg">
<path d="M402.399 268.067C399.204 278.971 396.268 289.019 393.294 299.046C389.752 311.002 386.28 322.986 382.535 334.886C380.499 341.312 380.277 341.246 372.928 343.105C369.522 338.608 371.483 333.602 372.487 329.134C375.95 313.772 379.901 298.531 383.833 283.278C385.393 277.247 387.379 271.337 389.507 264.257C385.934 262.951 382.439 261.528 378.85 260.399C354.113 252.64 329.352 244.966 304.636 237.169C299.673 235.606 294.85 233.628 290.165 231.927C290.419 221.607 291.05 220.793 300.163 223.352C327.633 231.039 355.009 239.082 382.401 247.01C385.863 248.016 389.254 249.23 394.048 250.807C403.931 219.149 413.736 187.731 423.72 155.747C428.193 156.655 430.432 159.436 429.409 164.537C427.296 175.135 425.59 185.844 422.855 196.294C418.271 213.75 413.013 231.04 408.041 248.395C407.421 250.542 406.849 252.692 406.14 255.209C416.992 260.148 427.419 264.791 437.743 269.698C441.58 271.516 445.308 273.693 448.732 276.203C450.027 277.162 451.384 280.351 450.854 281.012C449.67 282.462 447.116 283.964 445.461 283.653C441.321 282.875 437.332 281.192 433.351 279.712C423.226 275.962 413.126 272.127 402.393 268.1L402.399 268.067Z" fill="#D848EF"/>
<path d="M135.791 82.7659C141.733 84.287 141.124 88.4124 140.147 92.2752C137.078 104.356 134.18 116.485 130.479 128.373C125.603 144.036 120.057 159.485 114.803 175.028C113.967 177.485 113.217 179.966 112.1 183.425C120.323 186.301 128.574 188.398 136.063 192.052C143.173 195.525 152.782 192.069 158.436 199.847C154.867 205.835 149.689 206.169 144.402 205.039C135.761 203.187 127.215 200.87 118.635 198.719C115.179 197.852 111.734 196.905 107.304 195.749C102.794 209.08 98.3886 222.038 94.0348 235.013C92.1542 240.611 90.6486 246.377 88.3932 251.808C87.3133 254.409 84.8571 256.451 82.8867 258.897C77.4712 254.53 79.2219 249.973 80.1566 246.185C83.1437 234.095 86.6152 222.111 90.0906 210.141C91.7236 204.499 93.7969 198.975 95.8773 192.772C93.3098 191.699 91.0446 190.64 88.7132 189.802C66.2053 181.619 43.6525 173.62 21.2187 165.244C14.3711 162.692 14.5369 162.254 15.3663 153.085C19.1643 153.939 22.9131 154.491 26.458 155.632C48.0204 162.575 69.5301 169.674 91.0681 176.702C94.1687 177.711 97.2683 178.657 101.424 179.965C112.906 147.469 124.237 115.407 135.787 82.7512L135.791 82.7659Z" fill="#D848EF"/>
<path d="M325.69 77.0249C340.976 83.6056 355.099 89.6016 369.101 95.8502C370.099 96.2903 370.278 98.6009 371.052 100.611C362.058 104.483 354.716 99.5001 347.101 97.7198C339.448 95.918 331.951 93.5242 323.685 91.1948C323.005 93.4684 322.147 95.4907 321.814 97.5925C319.428 112.808 317.061 128.034 314.909 143.297C314.264 147.872 313.216 151.533 306.297 151.705C306.031 147.955 305.314 144.515 305.633 141.191C307.386 123.613 309.397 106.061 311.397 87.8205C298.692 83.5359 285.712 79.1674 272.74 74.7657C268.709 73.393 264.609 72.1173 260.712 70.4255C254.893 67.8966 254.933 67.6969 257.239 58.8714C276.168 62.3845 294.166 69.638 313.998 74.4659C319.141 53.8732 324.029 33.2702 334.508 14.6915C341.924 18.6635 341.972 18.6664 340.072 25.2451C336.155 38.7951 332.138 52.3246 328.273 65.8921C327.191 69.6571 326.482 73.5264 325.69 77.0249Z" fill="#D848EF"/>
<path d="M256.276 345.462C261.73 319.691 266.996 294.805 272.261 269.855C277.88 270.346 278.036 273.276 277.525 276.825C276.18 286.243 275.064 295.693 273.623 305.104C271.454 319.366 269.085 333.586 266.693 348.425C281.102 355.021 296.916 358.174 311.035 366.152C308.676 370.668 305.406 369.673 302.355 368.965C293.419 366.894 284.5 364.708 275.578 362.57C272.4 361.802 269.218 361.02 264.85 359.973C263.964 364.943 262.919 369.61 262.332 374.343C260.995 385.079 259.82 395.835 258.708 406.589C258.273 410.778 257.66 414.59 250.941 414.221C245.135 395.43 251.604 376.966 253.414 357.55C251.419 356.795 249.11 355.747 246.718 355.036C232.263 350.732 217.709 346.707 203.316 342.167C196.841 340.128 196.866 339.399 199.902 331.305C218.142 335.883 236.5 340.493 256.257 345.451L256.276 345.462Z" fill="#D848EF"/>
<path d="M137.891 363.77C146.34 339.32 154.217 316.548 162.132 293.687C171.214 298.062 171.99 298.845 169.719 306.45C164.358 324.35 158.556 342.131 152.92 359.947C152.126 362.44 151.228 364.898 150.336 367.495C160.908 375.968 175.544 375.898 185.93 383.792C185.02 388.847 182.059 389.295 179.035 388.517C172.397 386.805 165.814 384.827 159.301 382.704C155.289 381.404 151.406 379.646 146.574 377.749C143.375 385.823 140.64 393.805 137.076 401.395C133.611 408.77 132.375 417.828 124.092 422.359C118.7 418.725 120.075 414.41 121.331 410.473C124.113 401.724 127.254 393.083 130.225 384.394C131.387 380.985 132.515 377.569 134.867 371.734C132.66 371.241 130.249 371.164 128.276 370.198C116.512 364.435 104.818 358.527 93.1422 352.568C89.5563 350.745 86.0582 348.664 89.3031 342.7C105.143 349.588 120.89 356.422 137.884 363.803L137.891 363.77Z" fill="#D848EF"/>
<path d="M233.308 132.582C241.889 135.912 242.381 135.984 241.263 143.139C238.234 162.584 234.762 181.958 231.408 201.364C230.643 205.846 229.664 210.291 228.823 214.604C239.787 223.601 255.222 223.05 265.158 232.904C262.535 238.135 258.889 237.556 255.377 236.421C247.901 233.99 240.499 231.303 233.076 228.717C230.927 227.972 228.803 227.205 226.06 226.241C223.187 235.879 220.595 245.222 217.556 254.417C215.428 260.852 214.581 261.095 207.208 260.162C206.98 247.046 212.148 234.702 214.015 221.308C205.157 216.653 196.493 212.135 187.876 207.556C185.564 206.321 183.276 205 181.093 203.541C178.123 201.553 177.895 198.941 180.169 195.046C192.656 198.225 203.305 206.394 216.358 210.161C217.151 207.37 218.021 204.982 218.525 202.52C222.551 182.573 226.482 162.62 230.527 142.683C231.211 139.308 232.357 136.013 233.301 132.615L233.308 132.582Z" fill="#D848EF"/>
</svg>
