<?xml version="1.0" encoding="UTF-8"?>
<svg id="Layer_1" data-name="Layer 1" xmlns="http://www.w3.org/2000/svg" viewBox="0 0 99.98 100.4">
  <defs>
    <style>
      .cls-1 {
        fill: #00c951;
        stroke-width: 0px;
      }
    </style>
  </defs>
  <path class="cls-1" d="M50,50.11l4.8,32.01v11.3h-9.6v-11.3l4.8-32.01Z"/>
  <path class="cls-1" d="M50,50.29l-4.8-32.01V6.99h9.6v11.3l-4.8,32.01Z"/>
  <path class="cls-1" d="M50.09,50.19l-32.01,4.8H6.79v-9.6h11.3l32.01,4.8Z"/>
  <path class="cls-1" d="M49.91,50.19l32.01-4.8h11.3v9.6h-11.3l-32.01-4.8Z"/>
  <path class="cls-1" d="M49.93,50.12l26.03,19.24,7.99,7.99-6.79,6.79-7.99-7.99-19.24-26.03Z"/>
  <path class="cls-1" d="M50.06,50.26l-26.03-19.24-7.99-7.99,6.79-6.79,7.99,7.99,19.24,26.03Z"/>
  <path class="cls-1" d="M50.07,50.12l-19.24,26.03-7.99,7.99-6.79-6.79,7.99-7.99,26.03-19.24Z"/>
  <path class="cls-1" d="M49.93,50.26l19.24-26.03,7.99-7.99,6.79,6.79-7.99,7.99-26.03,19.24Z"/>
</svg>