<?xml version="1.0" encoding="UTF-8"?>
<svg id="Layer_1" data-name="Layer 1" xmlns="http://www.w3.org/2000/svg" viewBox="0 0 117.69 97.07">
  <path d="M111.71,14.85c-23.34,24.79-48.88,45.29-78.32,62.15-9.24,5.29-11.5-23.69-12.8-30.93-.67-3.77-1.54-35.15-1.12-34.72,15.72,16.31,31.35,33.05,47.67,49.02,9.92,9.7,14.43,20.3,14.2,2.63-.2-15.76-4.99-29.78-7.45-45.08-2.52-15.69.58,31.86-.7,47.7-.52,6.38-.13,17.41-3.23,23.2-5.18,9.67-1.29-22.07-1.83-33.12-.52-10.72-1.86-21.35-1.97-32.09-.02-1.94,1.48-23.82-1.69-15.46-10.14,26.78-21.03,53.53-32.06,79.94-5.75,13.78-5.05-28.53-5.48-33.55-.09-1.04-2.39-24.59-1.55-24.51,6.49.61,18.43,17.22,24.33,21.3,8.58,5.94,32.25,24.34,27.42,14.88-9.16-17.94-43.06-28.8-59.76-36.62-29.61-13.86,6.71,3.94,17.3,6.86,25.1,6.91,51.36,13.99,77.06,17.8" fill="none" stroke="#c42b1c" stroke-linecap="round" stroke-width="10.57"/>
</svg>