<?xml version="1.0" encoding="UTF-8"?>
<svg id="Layer_1" data-name="Layer 1" xmlns="http://www.w3.org/2000/svg" viewBox="0 0 5050.66 566.73">
  <defs>
    <style>
      .cls-1 {
        fill: #d8262c;
      }

      .cls-1, .cls-2 {
        stroke-width: 0px;
      }

      .cls-2 {
        fill: #fff;
      }
    </style>
  </defs>
  <path class="cls-1" d="M387.06,335.91c0,22.39-.01,44.78.02,67.18,0,4.79,1.99,8.52,6.45,10.68,4.23,2.05,8.18,1.33,11.72-1.51,3.12-2.5,4.11-5.98,4.1-9.92-.04-35.34.06-70.67-.06-106.01-.05-16.33.22-32.64,1.63-48.91,3.47-40.07,11.65-79.18,24.49-117.31,9.32-27.68,18.55-55.39,27.81-83.08,2.36-7.07,5.4-9.32,12.79-9.32,38.84,0,77.68-.01,116.53,0,7.66,0,10.99,2.79,12.9,10.42,12.9,51.59,25.78,103.18,38.76,154.75,4.22,16.77,8.3,33.56,10.52,50.73,2.98,23.06,3.6,46.15,2.08,69.38-2.44,37.34-12.72,72.78-25.06,107.77-.89,2.51-1.7,5.05-2.55,7.58-1.91,5.68-5.46,8.38-11.38,8.39-37.33.03-74.65.04-111.98,0-8.86-.01-13.64-7.18-10.74-15.88,16.32-48.97,32.66-97.93,48.98-146.9,15.81-47.43,31.61-94.87,47.39-142.31,1.79-5.38.38-10.15-3.7-13.09-3.89-2.79-9.52-2.68-13.33.26-2.12,1.63-3.22,3.89-4.05,6.36-25.84,77.52-51.71,155.03-77.56,232.55-7.8,23.39-15.54,46.79-23.33,70.18-2.08,6.26-5.6,8.82-12.16,8.83-39.43.01-78.85.01-118.28,0-6.53,0-10.03-2.56-12.13-8.87-21.46-64.34-42.91-128.68-64.37-193.02-11.42-34.26-22.84-68.52-34.27-102.77-2.29-6.87-8.2-10.11-14.33-7.95-6.2,2.19-8.83,8.2-6.55,15.04,13.29,39.88,26.6,79.76,39.89,119.64,17.97,53.91,35.77,107.88,54.05,161.68,2.61,7.69-2.07,16.51-11.81,16.41-36.62-.37-73.25-.15-109.88-.15-7.18,0-10.36-2.29-12.6-9.08-6.94-21.13-14.71-41.99-19.7-63.73-7.4-32.22-10.01-64.81-7.98-97.77,1.65-26.78,7.55-52.8,14.14-78.72,11.76-46.26,23.19-92.6,34.77-138.91.87-3.49,1.87-6.94,2.71-10.43,1.88-7.79,5.17-10.41,13.26-10.41h85.03c10.61,0,21.23-.02,31.84.01,6.19.02,9.94,2.62,11.83,8.32,11.19,33.78,22.63,67.48,33.41,101.38,7.89,24.81,12.81,50.32,16.49,76.1,4.99,35.01,4.19,70.2,4.21,105.39v7.02Z"/>
  <g>
    <path class="cls-2" d="M4595.63,177.64h58.16v248.54h-58.16l6.73-72.11h-.97c-13.46,49.99-51.43,78.84-105.75,78.84-64.42,0-100.48-39.42-100.48-113.94v-141.33h58.17v134.12c0,46.63,23.56,70.67,66.34,70.67,46.63,0,75.96-30.77,75.96-76.92v-127.87h0Z"/>
    <polygon class="cls-2" points="4720.62 89.67 4778.79 78.61 4778.79 426.18 4720.62 426.18 4720.62 89.67"/>
    <path class="cls-2" d="M1872.45,177.64h58.16v248.54h-58.16l6.73-72.11h-.97c-13.46,49.99-51.43,78.84-105.76,78.84-64.41,0-100.47-39.42-100.47-113.94v-141.33h58.17v134.12c0,46.63,23.56,70.67,66.34,70.67,46.63,0,75.96-30.77,75.96-76.92v-127.87Z"/>
    <rect class="cls-2" x="2334.43" y="177.64" width="58.16" height="248.54"/>
    <path class="cls-2" d="M1259.7,135.71c0-36.18-17.12-58.68-44.99-58.68-44.01,0-60.15,46.95-60.15,93.89,0,38.14,7.34,78.73,20.54,117.36-30.81,55.74-70.91,101.22-104.16,101.22-21.02,0-36.67-25.92-44.99-64.06,40.59-63.57,67-140.83,67-186.31,0-37.65-13.21-62.1-43.03-62.1-56.73,0-75.31,81.18-75.31,162.84,0,26.89,2.45,54.28,7.33,80.19-29.34,40.1-64.05,69.44-94.37,69.44-12.72,0-19.07-7.33-19.07-20.05,0-19.56,11.73-41.07,47.92-61.61l-20.54-35.7c-51.34,24.45-75.79,60.64-75.79,101.22,0,29.83,22,59.66,66.5,59.66,38.63,0,76.28-26.89,108.56-65.52,15.16,38.63,39.12,65.52,72.86,65.52,46.45,0,90.95-43.03,125.18-98.29,17.12,37.17,38.63,71.4,62.11,98.29l38.14-24.94c-30.32-35.2-56.24-77.75-73.84-122.73,24.94-53.79,40.1-110.52,40.1-149.64h0ZM1017.64,259.92l-.49-22.01c0-60.14,8.32-117.36,25.43-117.36,5.87,0,9.29,6.85,9.29,17.61,0,34.72-13.69,79.7-34.23,121.76ZM1196.61,169.94c0-28.36,5.38-49.39,16.14-49.39,6.36,0,9.78,5.87,9.78,16.63,0,25.43-7.33,57.7-20.05,90.46-3.91-19.07-5.87-38.63-5.87-57.7h0Z"/>
    <path class="cls-2" d="M1475.36,170.91c-84.13,0-145.18,54.32-145.18,131.24s61.05,130.76,145.18,130.76,144.22-53.84,144.22-130.76-60.57-131.24-144.22-131.24h0ZM1475.36,382.43c-52.88,0-85.57-33.17-85.57-80.76s32.69-80.28,85.57-80.28,85.09,33.17,85.09,80.28-32.69,80.76-85.09,80.76Z"/>
    <path class="cls-2" d="M2157.52,170.91c-28.84,0-58.65,13.46-85.09,34.61l-12.98-27.88h-60.09c12.98,24.04,24.04,46.63,33.17,67.78-29.32,37.02-49.51,81.25-49.51,119.7s19.71,67.79,62.01,67.79,70.67-27.89,70.67-75.96c0-27.4-9.14-64.42-25.96-108.16,19.71-17.79,41.34-29.33,61.53-29.33,51.92,0,60.57,60.09,60.09,206.72h58.17c4.81-192.78-28.84-255.27-112.01-255.27h0ZM2049.36,384.35c-11.06,0-15.39-5.77-15.39-24.03,0-20.67,7.21-43.27,18.75-63.94,7.69,24.52,12.02,44.71,12.02,59.61,0,21.15-5.29,28.36-15.38,28.36h0Z"/>
    <path class="cls-2" d="M3705.31,247.83h-.96c-14.42-49.04-56.25-76.92-109.61-76.92-72.11,0-122.58,52.88-122.58,124.51s50.47,125.47,122.58,125.47c53.84,0,95.19-28.36,109.61-77.4h.96l-5.77,67.78c-3.85,43.27-36.06,68.75-93.26,68.75-36.06,0-67.78-6.73-108.17-23.56v50.48c43.27,15.38,75.48,22.11,116.34,22.11,92.3,0,142.78-49.99,142.78-135.08v-216.33h-58.17l6.25,70.19h0ZM3615.41,371.85c-52.88,0-83.65-29.8-83.65-76.43s30.77-75.96,83.65-75.96,83.65,29.81,83.65,76.44-31.25,75.95-83.65,75.95h0Z"/>
    <polygon class="cls-2" points="3812.52 177.64 4037.98 177.64 4037.98 179.56 3894.72 375.22 4032.69 375.22 4032.69 426.18 3798.57 426.18 3798.57 424.25 3942.79 228.6 3812.52 228.6 3812.52 177.64"/>
    <path class="cls-2" d="M3059.83,282.29c-17.62,0-35.74,3.63-49.22,7.25l-5.7,44.56c16.58-2.59,30.05-5.7,47.67-5.7,20.2,0,36.26,6.73,36.26,24.87,0,20.72-17.09,33.67-58.54,33.67-34.19,0-68.9-15.54-102.58-29.53,10.87-31.61,16.58-68.91,20.72-104.66h1.04c55.95,0,155.95-35.22,155.95-123.3,0-40.41-25.91-73.57-80.83-73.57-76.16,0-104.65,63.21-119.16,146.62-19.69-4.14-37.3-9.84-51.29-17.1l-15.03,42.49c15.03,7.77,36.27,15.54,59.59,19.68-4.15,35.23-8.3,67.87-14.51,94.3-10.88-3.11-21.76-5.18-32.12-5.18-39.9,0-62.17,19.68-62.17,48.7,0,31.08,20.72,47.66,51.81,47.66s53.88-15.54,69.42-39.9c36.27,17.63,77.71,39.9,118.13,39.9,62.17,0,111.38-25.39,111.38-80.3,0-51.81-40.41-70.46-80.82-70.46h0ZM3024.6,101.99c20.21,0,30.05,9.84,30.05,27.98,0,49.21-54.4,75.12-100.51,76.67,10.88-68.9,27.98-104.65,70.46-104.65h0ZM2846.9,395.23c-7.78,0-13.47-3.11-13.47-10.36,0-7.78,5.18-11.4,17.62-11.4,6.21,0,13.46,1.04,20.72,3.62-6.23,11.41-14.51,18.14-24.87,18.14h0Z"/>
    <path class="cls-2" d="M4346.61,298.78c0,75.96-57.21,134.13-149.51,134.13s-144.22-54.33-144.22-130.76c0-19.71,2.89-39.9,6.73-58.65l52.88-4.33c-3.36,16.35-4.8,30.29-4.8,46.15,0,66.82,37.49,99.03,89.41,99.03,55.77,0,90.38-33.65,90.38-85.57,0-49.03-24.52-79.32-64.42-79.32-28.36,0-43.26,15.39-43.26,40.87,0,19.22,7.69,36.05,18.74,49.51l-49.03,12.98c-13.94-16.34-24.52-37.5-24.52-64.9,0-43.74,33.65-87.01,100.96-87.01,83.16,0,120.66,55.28,120.66,127.87h0Z"/>
    <path class="cls-2" d="M2400.77,112.74c0,19.23-16.35,33.65-37.5,33.65s-37.02-14.42-37.02-33.65,15.87-33.17,37.02-33.17,37.5,14.42,37.5,33.17h0Z"/>
    <path class="cls-2" d="M4911.95,112.74c0,19.23-16.35,33.65-37.5,33.65s-37.02-14.42-37.02-33.65,15.87-33.17,37.02-33.17,37.5,14.42,37.5,33.17h0Z"/>
    <rect class="cls-2" x="4845.6" y="177.64" width="58.17" height="248.54"/>
    <path class="cls-2" d="M2616.13,170.91c8.65,0,17.3.96,23.07,1.92v57.69c-12.98-5.77-30.76-9.13-45.18-9.13-45.67,0-76.44,30.28-76.44,74.99v129.8h-58.17v-248.54h58.17l-6.73,72.11h.96c13.94-50.96,50.96-78.84,104.32-78.84h0Z"/>
    <path class="cls-2" d="M3300.54,170.91c-33.65,0-71.63,7.21-112.49,22.11v52.88c37.49-16.82,72.11-25.96,102.87-25.96,45.19,0,69.23,19.71,69.71,54.81h-83.17c-69.7,0-106.72,31.24-106.72,80.76s34.13,77.4,88.94,77.4,91.33-28.37,106.24-78.84h.96l-6.25,72.11h58.17v-145.66c0-71.15-43.27-109.61-118.26-109.61h0ZM3360.63,318.01c0,36.06-39.9,66.34-85.09,66.34-30.29,0-47.11-12.5-47.11-36.53s18.75-34.13,49.99-34.13h82.21v4.32h0Z"/>
  </g>
</svg>