<?xml version="1.0" encoding="UTF-8"?>
<svg id="Layer_1" data-name="Layer 1" xmlns="http://www.w3.org/2000/svg" viewBox="0 0 110.03 33.15">
  <defs>
    <style>
      .cls-1 {
        fill: #e6ba2c;
        stroke-width: 0px;
      }
    </style>
  </defs>
  <path class="cls-1" d="M27.99,18.45v-5.07h3.84v-4.72h-3.86v-3.87h-4.71v3.87h-3.86c-.04-5-4.1-8.04-9.41-8.04C5.08.62.99,3.46.99,7.9c0,3.57,2.38,5.99,7.1,7.25l3.39.91c2.31.63,3.15,1.47,3.15,2.73,0,1.65-1.54,2.66-4.09,2.66-1.02.08-2.03-.23-2.83-.88-.8-.65-1.31-1.58-1.44-2.59H.44c.48,5.01,4.35,8.03,10.09,8.03s9.86-3.15,9.86-7.49c0-3.43-1.99-5.71-6.4-7.01l-4.16-1.23c-2.13-.63-3.08-1.3-3.08-2.59s1.01-2.59,3.22-2.59c.48-.04.96.03,1.4.2.45.17.85.43,1.19.77.34.34.59.75.76,1.2.16.45.23.93.18,1.41h5.86v4.72h3.88v6.13c0,3.99,2.24,6.13,6.44,6.13,1.02.02,2.03-.04,3.04-.18v-4.34h-1.68c-2.22,0-2.99-.68-3.06-2.68"/>
  <path class="cls-1" d="M41.3.97h-5.25v4.66h5.25V.97Z"/>
  <path class="cls-1" d="M47.94.97h-5.25v4.66h5.25V.97Z"/>
  <path class="cls-1" d="M45.07,17.29c0,2.95-1.36,4.27-3.22,4.27s-2.97-1.16-2.97-3.85v-9.05h-5.25v9.39c0,5.04,2.34,7.95,6.48,7.95,1.01.07,2.01-.13,2.91-.59.9-.46,1.66-1.15,2.2-2v2.24h5.11V8.66h-5.25v8.63Z"/>
  <path class="cls-1" d="M64.48,10.63c-.64-.73-1.43-1.32-2.32-1.7-.89-.39-1.86-.57-2.83-.54-4.51,0-7.91,3.68-7.91,8.83s3.22,8.79,7.91,8.79c1.03.04,2.04-.18,2.97-.63.92-.45,1.72-1.13,2.32-1.96v2.24h5.11V.97h-5.25v9.67ZM64.44,17.15c0,2.7-1.54,4.48-3.85,4.48-.55-.01-1.09-.14-1.59-.38-.5-.23-.94-.57-1.3-.99-.36-.42-.63-.9-.8-1.43-.16-.53-.22-1.08-.16-1.63,0-2.66,1.57-4.45,3.85-4.45.53-.02,1.05.07,1.54.27.49.2.93.5,1.29.88.36.38.64.83.82,1.33.18.5.24,1.02.2,1.55v.36Z"/>
  <path class="cls-1" d="M83.44,8.66l-3.81,10.96-3.53-10.96h-5.59l6.48,17.3-.14.46c-.42,1.4-1.4,1.72-2.9,1.72h-2.6l-.18,4.38c1.26.11,2.06.15,3.43.15,3.67,0,5.63-1.79,6.86-4.94l7.49-19.06h-5.49Z"/>
  <path class="cls-1" d="M97.08,8.39c-5.49,0-9.03,3.47-9.03,8.83s3.64,8.79,9.03,8.79c1.18.08,2.37-.09,3.48-.5,1.11-.41,2.12-1.05,2.97-1.88.85-.83,1.51-1.83,1.94-2.93.43-1.1.63-2.29.57-3.47.06-1.19-.13-2.38-.56-3.48-.43-1.11-1.09-2.11-1.94-2.95-.85-.83-1.86-1.48-2.97-1.89-1.11-.41-2.3-.58-3.49-.5ZM97.05,21.63c-2.27,0-3.64-1.75-3.64-4.41s1.36-4.45,3.64-4.45,3.64,1.79,3.64,4.45-1.36,4.41-3.64,4.41Z"/>
  <path class="cls-1" d="M106.84,3.92v.05c.36.02.53.25.53.61v.87h-.72v-.72c0-.36-.13-.49-.47-.49h-.48v1.22h-.74v-3.25h1.32c.74,0,1.12.31,1.12.96.01.17-.04.34-.14.48-.1.14-.25.24-.42.27ZM105.69,2.82v.81h.56c.06,0,.11,0,.16-.02.05-.02.1-.05.14-.09.04-.04.07-.09.09-.14.02-.05.03-.11.02-.16,0-.05,0-.11-.02-.16-.02-.05-.05-.1-.09-.13-.04-.04-.08-.07-.13-.08-.05-.02-.1-.02-.16-.02h-.57Z"/>
  <path class="cls-1" d="M106.04,1.42c.47,0,.94.14,1.33.41.39.26.7.64.88,1.08.18.44.23.92.14,1.39-.09.47-.32.89-.66,1.23-.34.34-.76.57-1.23.66-.47.09-.95.05-1.39-.14-.44-.18-.81-.49-1.08-.89-.26-.4-.4-.86-.4-1.34,0-.64.25-1.25.7-1.7.45-.45,1.06-.7,1.7-.7ZM106.04.61c-.63,0-1.25.19-1.78.54-.53.35-.94.85-1.18,1.44-.24.59-.31,1.23-.18,1.85.12.62.43,1.19.88,1.64.45.45,1.02.75,1.64.88.62.12,1.27.06,1.85-.18.59-.24,1.09-.65,1.44-1.18.35-.53.54-1.15.54-1.78,0-.85-.34-1.67-.94-2.27-.6-.6-1.42-.94-2.27-.94Z"/>
</svg>